<?xml version="1.0" standalone="no"?>
<!DOCTYPE svg PUBLIC "-//W3C//DTD SVG 20010904//EN"
 "http://www.w3.org/TR/2001/REC-SVG-20010904/DTD/svg10.dtd">
<svg version="1.0" xmlns="http://www.w3.org/2000/svg"
 width="741.000000pt" height="741.000000pt" viewBox="0 0 741.000000 741.000000"
 preserveAspectRatio="xMidYMid meet">
<metadata>
Created by potrace 1.14, written by Peter Selinger 2001-2017
</metadata>
<g transform="translate(0.000000,741.000000) scale(0.100000,-0.100000)"
fill="#000000" stroke="none">
<path d="M3625 5309 c-3 -3 -17 -5 -32 -4 -15 1 -52 -7 -82 -17 -123 -41 -227
-120 -298 -227 -21 -31 -40 -58 -43 -61 -6 -6 -46 -84 -130 -251 -34 -68 -65
-131 -70 -139 -29 -50 -446 -896 -513 -1040 -19 -41 -50 -109 -70 -150 -54
-116 -96 -210 -96 -215 -1 -3 -14 -32 -31 -65 -17 -33 -27 -60 -23 -60 5 0 3
-4 -2 -8 -9 -6 -33 -75 -61 -172 -13 -45 -12 -199 2 -270 32 -167 142 -334
286 -433 54 -37 157 -86 194 -93 15 -3 30 -7 34 -9 13 -8 107 -18 165 -18 86
1 174 17 250 45 92 34 240 114 282 152 6 6 26 22 45 36 18 14 77 68 132 121
l99 95 76 -75 c258 -257 464 -362 736 -375 62 -4 173 18 250 49 39 15 72 32
73 37 2 4 7 6 12 3 4 -2 20 7 36 20 16 14 32 25 36 25 14 0 146 138 153 159 3
12 10 21 14 21 10 0 78 147 84 181 3 13 10 44 17 69 18 64 20 197 5 263 -16
70 -45 159 -56 173 -5 6 -7 13 -4 16 3 3 -1 11 -10 18 -8 7 -15 19 -15 26 0 8
-4 22 -9 32 -11 19 -87 181 -131 277 -72 158 -209 443 -312 652 -45 92 -83
170 -83 173 0 3 -3 10 -7 15 -3 6 -58 111 -121 235 -252 496 -270 527 -343
609 -45 50 -122 109 -175 134 -74 34 -253 66 -264 46z m110 -218 c0 -2 13 -5
29 -7 67 -11 150 -77 208 -165 44 -67 398 -764 398 -785 0 -8 5 -14 10 -14 6
0 10 -4 10 -9 0 -4 54 -120 121 -257 112 -229 140 -289 219 -459 15 -33 49
-104 74 -158 25 -55 46 -101 46 -104 0 -3 13 -32 30 -64 108 -213 108 -400 2
-574 -55 -89 -177 -176 -289 -205 -118 -30 -290 -1 -410 69 -131 77 -148 90
-285 220 -48 46 -88 91 -88 100 0 9 10 27 23 41 36 40 140 188 189 270 165
278 225 535 173 750 0 3 -11 27 -23 54 -12 27 -22 50 -22 53 0 12 -52 75 -103
124 -107 103 -239 151 -406 145 -229 -8 -428 -148 -496 -351 -88 -263 17 -597
316 -1001 l67 -91 -62 -64 c-65 -66 -119 -116 -176 -159 -17 -14 -38 -30 -45
-37 -7 -7 -15 -9 -19 -6 -3 4 -6 2 -6 -4 0 -18 -183 -102 -254 -116 -176 -34
-327 8 -453 126 -39 36 -88 106 -93 132 -1 6 -6 15 -10 21 -18 20 -40 129 -40
192 0 82 21 161 74 283 24 54 41 101 38 104 -3 3 0 5 6 5 7 0 12 4 12 9 0 6
36 85 80 177 44 91 80 168 80 170 0 18 501 1027 514 1036 6 4 7 8 2 8 -5 0 -4
6 1 13 6 6 48 84 93 172 45 88 95 178 111 201 52 76 136 135 216 152 33 7 138
9 138 3z m47 -1188 c44 -14 138 -73 138 -85 0 -4 6 -13 13 -20 66 -69 92 -230
57 -358 -7 -25 -14 -52 -15 -60 -17 -80 -143 -308 -254 -459 l-54 -75 -29 35
c-121 144 -255 390 -293 539 -20 76 -26 187 -13 245 34 154 162 252 330 252
43 1 97 -6 120 -14z"/>
</g>
</svg>
